<svg width="85" height="110" viewBox="0 0 85 110" fill="none" xmlns="http://www.w3.org/2000/svg">
<path d="M61.7844 39.5135C59.8062 38.5881 57.7174 38.1214 55.6139 38.1351C48.8219 38.1351 44.022 42.5763 43.9928 48.9322C43.937 53.6038 47.3955 56.2369 50.0092 57.8113C52.6947 59.4235 53.5925 60.4272 53.5792 61.8572C53.5659 64.0607 51.433 65.0438 49.47 65.0438C46.742 65.0438 45.2625 64.5626 42.9808 63.3251L42.1334 62.806L41.1666 70.1485C42.8267 71.0251 45.8017 71.7951 48.8723 71.8672C56.108 71.8672 60.8255 67.4638 60.8786 60.6747C60.9344 56.9519 59.083 54.1263 55.1384 51.7957C52.7584 50.2935 51.2683 49.2691 51.2683 47.7291C51.2683 46.3679 52.5406 44.9379 55.1969 44.9379C56.9596 44.8807 58.7122 45.3011 60.342 46.1719L60.9928 46.5466L61.9464 39.4757L61.7844 39.5135ZM79.4405 38.7435H74.128C72.4678 38.7435 71.2353 39.3176 70.5022 41.4488L60.2916 71.3997H67.5139L68.9695 66.4944L77.7803 66.5116C78.0008 67.6563 78.6223 71.3963 78.6223 71.3963H85L79.4405 38.7435ZM34.2125 38.4754H41.0895L36.7864 71.1454H29.9094L34.2125 38.4582V38.4754ZM16.7264 56.4672L17.4303 61.0151L24.1666 38.7435H31.458L20.6098 71.3447H13.3503L7.40031 43.7382C7.35473 43.5089 7.27351 43.294 7.16162 43.1066C7.04973 42.9193 6.90952 42.7634 6.74953 42.6485C4.61227 41.2099 2.34501 40.121 0 39.4069L0.0823437 38.7229H11.1775C12.673 38.7951 13.8895 39.4069 14.3039 41.4832L16.7264 56.4844V56.4672ZM70.9298 59.8154L73.6844 50.6682C73.6419 50.7541 74.2502 48.7879 74.5955 47.5504L75.0656 50.3588L76.6594 59.7947H70.9298V59.8154Z" fill="black"/>
</svg>
