<svg width="169" height="62" viewBox="0 0 169 62" fill="none" xmlns="http://www.w3.org/2000/svg">
<rect x="0.703125" width="168.296" height="61.358" rx="10.5185" fill="white"/>
<path d="M80.3098 43.0491H78.8792L82.5818 32.9092H84.1104L87.827 43.0491H86.3824L85.4708 40.5246H81.2073L80.3098 43.0491ZM83.1708 35.0971L81.6281 39.3325H85.0641L83.5074 35.0971C83.4373 34.9007 83.3671 34.6623 83.3391 34.508C83.311 34.6483 83.2409 34.8867 83.1708 35.0971ZM88.9505 46.1205V36.191H90.1426L90.2408 37.4252C90.7036 36.4855 91.6292 35.9947 92.7231 35.9947C94.6866 35.9947 95.9067 37.4672 95.9067 39.5709C95.9067 41.6606 94.7567 43.2314 92.7231 43.2314C91.6292 43.2314 90.7176 42.7686 90.2688 41.9271V46.1205H88.9505ZM90.2828 39.627C90.2828 41.0295 91.0963 42.0393 92.4426 42.0393C93.789 42.0393 94.5884 41.0295 94.5884 39.627C94.5884 38.2106 93.789 37.2008 92.4426 37.2008C91.0963 37.2008 90.2828 38.1965 90.2828 39.627ZM97.3598 46.1205V36.191H98.5519L98.6501 37.4252C99.1129 36.4855 100.039 35.9947 101.132 35.9947C103.096 35.9947 104.316 37.4672 104.316 39.5709C104.316 41.6606 103.166 43.2314 101.132 43.2314C100.039 43.2314 99.1269 42.7686 98.6782 41.9271V46.1205H97.3598ZM98.6922 39.627C98.6922 41.0295 99.5056 42.0393 100.852 42.0393C102.198 42.0393 102.998 41.0295 102.998 39.627C102.998 38.2106 102.198 37.2008 100.852 37.2008C99.5056 37.2008 98.6922 38.1965 98.6922 39.627ZM109.239 35.644C109.239 33.905 110.642 32.7269 112.732 32.7269C114.667 32.7269 115.915 33.8068 116.027 35.5599H114.639C114.569 34.5501 113.854 33.9611 112.718 33.9611C111.441 33.9611 110.614 34.6062 110.614 35.602C110.614 36.4154 111.077 36.9063 112.03 37.1307L113.699 37.5233C115.354 37.902 116.196 38.7996 116.196 40.2301C116.196 42.0533 114.779 43.2174 112.619 43.2174C110.558 43.2174 109.183 42.1375 109.099 40.3984H110.502C110.53 41.3661 111.343 41.9832 112.619 41.9832C113.966 41.9832 114.821 41.3521 114.821 40.3423C114.821 39.5429 114.386 39.038 113.419 38.8136L111.75 38.4349C110.095 38.0563 109.239 37.1026 109.239 35.644ZM119.634 43.0491H118.315V37.2989H116.969V36.191H118.315V34.0452H119.634V36.191H120.98V37.2989H119.634V43.0491ZM121.646 39.613C121.646 37.4953 123.161 36.0087 125.222 36.0087C127.27 36.0087 128.785 37.4953 128.785 39.613C128.785 41.7308 127.27 43.2174 125.222 43.2174C123.161 43.2174 121.646 41.7308 121.646 39.613ZM122.978 39.613C122.978 41.0435 123.89 42.0393 125.222 42.0393C126.541 42.0393 127.466 41.0435 127.466 39.613C127.466 38.1825 126.541 37.1868 125.222 37.1868C123.89 37.1868 122.978 38.1825 122.978 39.613ZM134.171 36.1349V37.341H133.582C132.334 37.341 131.562 38.0984 131.562 39.4167V43.0491H130.244V36.205H131.478L131.562 37.2428C131.843 36.5276 132.53 36.0508 133.47 36.0508C133.708 36.0508 133.904 36.0788 134.171 36.1349ZM138.12 43.2174C136.1 43.2174 134.712 41.7588 134.712 39.627C134.712 37.4813 136.072 35.9947 138.064 35.9947C140.013 35.9947 141.29 37.341 141.29 39.3746V39.8655L135.988 39.8795C136.086 41.324 136.844 42.1234 138.148 42.1234C139.172 42.1234 139.845 41.7027 140.069 40.9173H141.304C140.967 42.3899 139.817 43.2174 138.12 43.2174ZM138.064 37.1026C136.914 37.1026 136.185 37.7898 136.016 38.9959H139.971C139.971 37.8599 139.228 37.1026 138.064 37.1026Z" fill="#2251D1"/>
<path d="M80.8497 21.0244H79.321V16.0036H80.8357C82.3503 16.0036 83.3601 17.0134 83.3601 18.514C83.3601 20.0146 82.3574 21.0244 80.8497 21.0244ZM80.8146 16.4664H79.8259V20.5616H80.8287C82.0558 20.5616 82.8412 19.7622 82.8412 18.514C82.8412 17.2588 82.0558 16.4664 80.8146 16.4664ZM83.9285 19.3274C83.9285 18.2896 84.6578 17.5393 85.6535 17.5393C86.6493 17.5393 87.3786 18.2896 87.3786 19.3274C87.3786 20.3582 86.6493 21.1086 85.6535 21.1086C84.6578 21.1086 83.9285 20.3582 83.9285 19.3274ZM84.4194 19.3204C84.4194 20.1198 84.9243 20.6738 85.6535 20.6738C86.3758 20.6738 86.8877 20.1198 86.8877 19.3204C86.8877 18.535 86.3758 17.974 85.6535 17.974C84.9243 17.974 84.4194 18.535 84.4194 19.3204ZM88.7171 21.0244L87.5951 17.6304H88.093L88.7591 19.678C88.8363 19.9024 88.8994 20.1338 88.9695 20.4073C89.0256 20.1338 89.1378 19.7902 89.1729 19.678L89.846 17.6304H90.3439L91.0101 19.678C91.0732 19.8604 91.1574 20.1549 91.2205 20.4073C91.2906 20.1268 91.3046 20.0427 91.4238 19.678L92.097 17.6304H92.6019L91.4519 21.0244H90.982L90.2808 18.8927C90.1967 18.6402 90.1406 18.4298 90.0985 18.2265C90.0494 18.4088 89.9933 18.6122 89.9021 18.8927L89.2009 21.0244H88.7171ZM93.6901 21.0244H93.2063V17.6304H93.627L93.6971 18.2195C93.9215 17.7847 94.3703 17.5393 94.8612 17.5393C95.7938 17.5393 96.1795 18.0933 96.1795 18.9488V21.0244H95.6957V19.0539C95.6957 18.2615 95.338 17.9811 94.777 17.9811C94.0828 17.9811 93.6901 18.4859 93.6901 19.2503V21.0244ZM97.6488 21.0244H97.1649V15.9124H97.6488V21.0244ZM98.4394 19.3274C98.4394 18.2896 99.1687 17.5393 100.164 17.5393C101.16 17.5393 101.889 18.2896 101.889 19.3274C101.889 20.3582 101.16 21.1086 100.164 21.1086C99.1687 21.1086 98.4394 20.3582 98.4394 19.3274ZM98.9303 19.3204C98.9303 20.1198 99.4352 20.6738 100.164 20.6738C100.887 20.6738 101.399 20.1198 101.399 19.3204C101.399 18.535 100.887 17.974 100.164 17.974C99.4352 17.974 98.9303 18.535 98.9303 19.3204ZM103.638 21.1086C102.916 21.1086 102.488 20.7018 102.488 20.1058C102.488 19.4817 102.965 19.089 103.757 19.0259L104.879 18.9347V18.8225C104.879 18.1564 104.48 17.946 103.982 17.946C103.393 17.946 103.042 18.2125 103.042 18.6683H102.6C102.6 17.9811 103.161 17.5393 103.996 17.5393C104.781 17.5393 105.356 17.932 105.356 18.8295V21.0244H104.949L104.886 20.4284C104.676 20.8561 104.213 21.1086 103.638 21.1086ZM103.75 20.7159C104.466 20.7159 104.879 20.218 104.879 19.4817V19.2994L103.876 19.3765C103.238 19.4326 102.979 19.7131 102.979 20.0918C102.979 20.5055 103.287 20.7159 103.75 20.7159ZM107.659 21.1086C106.671 21.1086 106.089 20.3512 106.089 19.3344C106.089 18.3106 106.671 17.5393 107.68 17.5393C108.241 17.5393 108.69 17.7847 108.929 18.2756V15.9124H109.412V21.0244H108.992L108.943 20.3302C108.704 20.8561 108.227 21.1086 107.659 21.1086ZM107.744 20.6668C108.487 20.6668 108.922 20.1058 108.922 19.3204C108.922 18.542 108.487 17.974 107.744 17.974C107.007 17.974 106.579 18.542 106.579 19.3204C106.579 20.1058 107.007 20.6668 107.744 20.6668ZM113.145 21.0244H112.668V18.0372H111.988V17.6304H112.668V16.5575H113.145V17.6304H113.826V18.0372H113.145V21.0244ZM114.939 21.0174H114.456V15.9124H114.939V18.2195C115.157 17.8128 115.571 17.5393 116.139 17.5393C117.029 17.5393 117.429 18.0933 117.429 18.9488V21.0244H116.945V19.0539C116.945 18.2615 116.573 17.9811 116.047 17.9811C115.318 17.9811 114.939 18.521 114.939 19.1732V21.0174ZM119.817 21.1086C118.821 21.1086 118.155 20.3933 118.155 19.3274C118.155 18.2686 118.814 17.5393 119.782 17.5393C120.7 17.5393 121.324 18.1914 121.324 19.1521V19.3905H118.625C118.66 20.218 119.094 20.6948 119.824 20.6948C120.378 20.6948 120.735 20.4564 120.862 20.0076H121.324C121.142 20.7229 120.616 21.1086 119.817 21.1086ZM119.782 17.953C119.144 17.953 118.723 18.3737 118.639 19.0399H120.841C120.841 18.3878 120.42 17.953 119.782 17.953ZM124.148 21.0244H123.636L125.48 16.0036H126.104L127.97 21.0244H127.444L126.953 19.6921H124.639L124.148 21.0244ZM125.726 16.7118L124.793 19.2503H126.792L125.852 16.7118C125.831 16.6417 125.796 16.5575 125.789 16.5085C125.782 16.5505 125.754 16.6417 125.726 16.7118ZM128.562 22.504V17.6304H128.983L129.032 18.3176C129.271 17.7917 129.748 17.5393 130.316 17.5393C131.297 17.5393 131.886 18.2896 131.886 19.3134C131.886 20.3372 131.318 21.1086 130.316 21.1086C129.741 21.1086 129.285 20.8631 129.046 20.3723V22.504H128.562ZM129.053 19.3274C129.053 20.1058 129.488 20.6738 130.231 20.6738C130.968 20.6738 131.395 20.1058 131.395 19.3274C131.395 18.542 130.968 17.9811 130.231 17.9811C129.488 17.9811 129.053 18.542 129.053 19.3274ZM132.658 22.504V17.6304H133.078L133.127 18.3176C133.366 17.7917 133.843 17.5393 134.411 17.5393C135.392 17.5393 135.981 18.2896 135.981 19.3134C135.981 20.3372 135.413 21.1086 134.411 21.1086C133.836 21.1086 133.38 20.8631 133.141 20.3723V22.504H132.658ZM133.148 19.3274C133.148 20.1058 133.583 20.6738 134.327 20.6738C135.063 20.6738 135.491 20.1058 135.491 19.3274C135.491 18.542 135.063 17.9811 134.327 17.9811C133.583 17.9811 133.148 18.542 133.148 19.3274Z" fill="#2251D1"/>
<path d="M32.4793 38.3479C32.0724 38.3479 31.6823 38.1863 31.3946 37.8986C31.1069 37.611 30.9453 37.2208 30.9453 36.814C30.9453 36.4071 31.1069 36.017 31.3946 35.7293C31.6823 35.4416 32.0724 35.28 32.4793 35.28H48.5857C50.1197 35.28 51.6536 38.3479 50.8867 38.3479H32.4793ZM53.9546 38.3479C53.5477 38.3479 53.1576 38.1863 52.8699 37.8986C52.5822 37.611 52.4206 37.2208 52.4206 36.814C52.4206 36.4071 52.5822 36.017 52.8699 35.7293C53.1576 35.4416 53.5477 35.28 53.9546 35.28H60.0904C60.4972 35.28 60.8874 35.4416 61.175 35.7293C61.4627 36.017 61.6243 36.4071 61.6243 36.814C61.6243 37.2208 61.4627 37.611 61.175 37.8986C60.8874 38.1863 60.4972 38.3479 60.0904 38.3479H53.9546ZM47.2558 17.6411C47.4588 17.2884 47.7936 17.0308 48.1866 16.9249C48.5795 16.819 48.9985 16.8736 49.3512 17.0766C49.7039 17.2796 49.9615 17.6144 50.0674 18.0074C50.1733 18.4004 50.1187 18.8193 49.9157 19.172L39.3207 37.5733C39.2203 37.7479 39.0864 37.9011 38.9268 38.024C38.7672 38.1469 38.5849 38.2372 38.3904 38.2897C38.1959 38.3422 37.993 38.3559 37.7932 38.3299C37.5934 38.304 37.4007 38.2389 37.2261 38.1385C37.0514 38.0381 36.8983 37.9043 36.7753 37.7447C36.6524 37.5851 36.5621 37.4028 36.5096 37.2083C36.4571 37.0138 36.4435 36.8109 36.4694 36.6111C36.4954 36.4113 36.5604 36.2186 36.6608 36.0439L47.2558 17.6411ZM34.0132 40.6488C34.7802 39.1149 39.382 37.5809 37.8481 40.2193C37.0158 41.6424 36.1808 43.0638 35.3431 44.4837C35.1401 44.8364 34.8053 45.0941 34.4124 45.1999C34.0194 45.3058 33.6005 45.2512 33.2478 45.0482C32.8951 44.8452 32.6374 44.5104 32.5316 44.1174C32.4257 43.7245 32.4803 43.3056 32.6833 42.9528L34.0132 40.6488ZM41.887 19.172C41.684 18.8193 41.6294 18.4004 41.7353 18.0074C41.8411 17.6144 42.0988 17.2796 42.4515 17.0766C42.8042 16.8736 43.2231 16.819 43.6161 16.9249C44.009 17.0308 44.3438 17.2884 44.5469 17.6411L47.2205 22.2874C47.3242 22.4621 47.3922 22.6557 47.4205 22.8569C47.4488 23.058 47.4369 23.2628 47.3854 23.4594C47.3339 23.6559 47.2439 23.8402 47.1206 24.0017C46.9973 24.1631 46.8431 24.2985 46.667 24.3998C46.491 24.5012 46.2966 24.5666 46.095 24.5923C45.8935 24.6179 45.6889 24.6032 45.493 24.5491C45.2972 24.495 45.1141 24.4026 44.9543 24.2771C44.7945 24.1517 44.6612 23.9957 44.5622 23.8183L41.887 19.172ZM47.8188 29.9112C46.4413 27.6103 47.8188 23.0084 48.9171 25.3032L59.1178 42.9498C59.3144 43.3019 59.3645 43.7173 59.2571 44.106C59.1497 44.4948 58.8935 44.8256 58.544 45.0268C58.1945 45.2281 57.7798 45.2836 57.3897 45.1814C56.9996 45.0792 56.6654 44.8274 56.4595 44.4806L47.8188 29.9112Z" fill="#2251D1"/>
</svg>
