<svg width="116" height="38" viewBox="0 0 116 38" fill="none" xmlns="http://www.w3.org/2000/svg">
<path d="M53.3098 31.0491H51.8792L55.5818 20.9092H57.1104L60.827 31.0491H59.3824L58.4708 28.5246H54.2073L53.3098 31.0491ZM56.1708 23.0971L54.6281 27.3325H58.0641L56.5074 23.0971C56.4373 22.9007 56.3671 22.6623 56.3391 22.508C56.311 22.6483 56.2409 22.8867 56.1708 23.0971ZM61.9505 34.1205V24.191H63.1426L63.2408 25.4252C63.7036 24.4855 64.6292 23.9947 65.7231 23.9947C67.6866 23.9947 68.9067 25.4672 68.9067 27.5709C68.9067 29.6606 67.7567 31.2314 65.7231 31.2314C64.6292 31.2314 63.7176 30.7686 63.2688 29.9271V34.1205H61.9505ZM63.2828 27.627C63.2828 29.0295 64.0963 30.0393 65.4426 30.0393C66.789 30.0393 67.5884 29.0295 67.5884 27.627C67.5884 26.2106 66.789 25.2008 65.4426 25.2008C64.0963 25.2008 63.2828 26.1965 63.2828 27.627ZM70.3598 34.1205V24.191H71.5519L71.6501 25.4252C72.1129 24.4855 73.0385 23.9947 74.1325 23.9947C76.0959 23.9947 77.3161 25.4672 77.3161 27.5709C77.3161 29.6606 76.1661 31.2314 74.1325 31.2314C73.0385 31.2314 72.1269 30.7686 71.6782 29.9271V34.1205H70.3598ZM71.6922 27.627C71.6922 29.0295 72.5056 30.0393 73.852 30.0393C75.1984 30.0393 75.9978 29.0295 75.9978 27.627C75.9978 26.2106 75.1984 25.2008 73.852 25.2008C72.5056 25.2008 71.6922 26.1965 71.6922 27.627ZM82.2394 23.644C82.2394 21.905 83.6419 20.7269 85.7316 20.7269C87.667 20.7269 88.9152 21.8068 89.0274 23.5599H87.6389C87.5688 22.5501 86.8535 21.9611 85.7175 21.9611C84.4413 21.9611 83.6138 22.6062 83.6138 23.602C83.6138 24.4154 84.0766 24.9063 85.0303 25.1307L86.6993 25.5233C88.3542 25.902 89.1957 26.7996 89.1957 28.2301C89.1957 30.0533 87.7792 31.2174 85.6194 31.2174C83.5577 31.2174 82.1833 30.1375 82.0992 28.3984H83.5016C83.5297 29.3661 84.3431 29.9832 85.6194 29.9832C86.9657 29.9832 87.8212 29.3521 87.8212 28.3423C87.8212 27.5429 87.3865 27.038 86.4188 26.8136L84.7498 26.4349C83.0949 26.0563 82.2394 25.1026 82.2394 23.644ZM92.6338 31.0491H91.3155V25.2989H89.9691V24.191H91.3155V22.0452H92.6338V24.191H93.9802V25.2989H92.6338V31.0491ZM94.646 27.613C94.646 25.4953 96.1607 24.0087 98.2223 24.0087C100.27 24.0087 101.785 25.4953 101.785 27.613C101.785 29.7308 100.27 31.2174 98.2223 31.2174C96.1607 31.2174 94.646 29.7308 94.646 27.613ZM95.9783 27.613C95.9783 29.0435 96.8899 30.0393 98.2223 30.0393C99.5406 30.0393 100.466 29.0435 100.466 27.613C100.466 26.1825 99.5406 25.1868 98.2223 25.1868C96.8899 25.1868 95.9783 26.1825 95.9783 27.613ZM107.171 24.1349V25.341H106.582C105.334 25.341 104.562 26.0984 104.562 27.4167V31.0491H103.244V24.205H104.478L104.562 25.2428C104.843 24.5276 105.53 24.0508 106.47 24.0508C106.708 24.0508 106.904 24.0788 107.171 24.1349ZM111.12 31.2174C109.1 31.2174 107.712 29.7588 107.712 27.627C107.712 25.4813 109.072 23.9947 111.064 23.9947C113.013 23.9947 114.29 25.341 114.29 27.3746V27.8655L108.988 27.8795C109.086 29.324 109.844 30.1234 111.148 30.1234C112.172 30.1234 112.845 29.7027 113.069 28.9173H114.304C113.967 30.3899 112.817 31.2174 111.12 31.2174ZM111.064 25.1026C109.914 25.1026 109.185 25.7898 109.016 26.9959H112.971C112.971 25.8599 112.228 25.1026 111.064 25.1026Z" fill="#2251D1"/>
<path d="M53.8497 9.02441H52.321V4.00357H53.8357C55.3503 4.00357 56.3601 5.01335 56.3601 6.51399C56.3601 8.01464 55.3574 9.02441 53.8497 9.02441ZM53.8146 4.46639H52.8259V8.5616H53.8287C55.0558 8.5616 55.8412 7.76219 55.8412 6.51399C55.8412 5.25878 55.0558 4.46639 53.8146 4.46639ZM56.9285 7.32743C56.9285 6.2896 57.6578 5.53928 58.6535 5.53928C59.6493 5.53928 60.3786 6.2896 60.3786 7.32743C60.3786 8.35824 59.6493 9.10856 58.6535 9.10856C57.6578 9.10856 56.9285 8.35824 56.9285 7.32743ZM57.4194 7.32041C57.4194 8.11982 57.9243 8.6738 58.6535 8.6738C59.3758 8.6738 59.8877 8.11982 59.8877 7.32041C59.8877 6.53503 59.3758 5.97404 58.6535 5.97404C57.9243 5.97404 57.4194 6.53503 57.4194 7.32041ZM61.7171 9.02441L60.5951 5.63044H61.093L61.7591 7.67804C61.8363 7.90244 61.8994 8.13385 61.9695 8.40733C62.0256 8.13385 62.1378 7.79024 62.1729 7.67804L62.846 5.63044H63.3439L64.0101 7.67804C64.0732 7.86036 64.1574 8.15488 64.2205 8.40733C64.2906 8.12683 64.3046 8.04269 64.4238 7.67804L65.097 5.63044H65.6019L64.4519 9.02441H63.982L63.2808 6.89266C63.1967 6.64022 63.1406 6.42985 63.0985 6.22649C63.0494 6.40881 62.9933 6.61217 62.9021 6.89266L62.2009 9.02441H61.7171ZM66.6901 9.02441H66.2063V5.63044H66.627L66.6971 6.21948C66.9215 5.78471 67.3703 5.53928 67.8612 5.53928C68.7938 5.53928 69.1795 6.09325 69.1795 6.94876V9.02441H68.6957V7.05394C68.6957 6.26155 68.338 5.98106 67.777 5.98106C67.0828 5.98106 66.6901 6.48594 66.6901 7.25029V9.02441ZM70.6488 9.02441H70.1649V3.91241H70.6488V9.02441ZM71.4394 7.32743C71.4394 6.2896 72.1687 5.53928 73.1644 5.53928C74.1602 5.53928 74.8895 6.2896 74.8895 7.32743C74.8895 8.35824 74.1602 9.10856 73.1644 9.10856C72.1687 9.10856 71.4394 8.35824 71.4394 7.32743ZM71.9303 7.32041C71.9303 8.11982 72.4352 8.6738 73.1644 8.6738C73.8867 8.6738 74.3986 8.11982 74.3986 7.32041C74.3986 6.53503 73.8867 5.97404 73.1644 5.97404C72.4352 5.97404 71.9303 6.53503 71.9303 7.32041ZM76.6381 9.10856C75.9158 9.10856 75.488 8.70185 75.488 8.1058C75.488 7.4817 75.9649 7.08901 76.7573 7.0259L77.8793 6.93473V6.82254C77.8793 6.15636 77.4796 5.94599 76.9817 5.94599C76.3926 5.94599 76.042 6.21246 76.042 6.66827H75.6002C75.6002 5.98106 76.1612 5.53928 76.9957 5.53928C77.7811 5.53928 78.3561 5.93197 78.3561 6.82955V9.02441H77.9494L77.8863 8.42836C77.6759 8.85612 77.2131 9.10856 76.6381 9.10856ZM76.7503 8.71587C77.4655 8.71587 77.8793 8.21799 77.8793 7.4817V7.29938L76.8765 7.37651C76.2384 7.43261 75.9789 7.71311 75.9789 8.09177C75.9789 8.5055 76.2875 8.71587 76.7503 8.71587ZM80.6594 9.10856C79.6706 9.10856 79.0886 8.35123 79.0886 7.33444C79.0886 6.31064 79.6706 5.53928 80.6804 5.53928C81.2414 5.53928 81.6902 5.78471 81.9286 6.27557V3.91241H82.4125V9.02441H81.9917L81.9426 8.33019C81.7042 8.85612 81.2274 9.10856 80.6594 9.10856ZM80.7435 8.66678C81.4868 8.66678 81.9216 8.1058 81.9216 7.32041C81.9216 6.54204 81.4868 5.97404 80.7435 5.97404C80.0072 5.97404 79.5795 6.54204 79.5795 7.32041C79.5795 8.1058 80.0072 8.66678 80.7435 8.66678ZM86.1453 9.02441H85.6685V6.03715H84.9883V5.63044H85.6685V4.55755H86.1453V5.63044H86.8255V6.03715H86.1453V9.02441ZM87.9395 9.0174H87.4556V3.91241H87.9395V6.21948C88.1568 5.81276 88.5706 5.53928 89.1386 5.53928C90.0291 5.53928 90.4288 6.09325 90.4288 6.94876V9.02441H89.945V7.05394C89.945 6.26155 89.5733 5.98106 89.0474 5.98106C88.3181 5.98106 87.9395 6.52101 87.9395 7.17315V9.0174ZM92.8167 9.10856C91.821 9.10856 91.1548 8.3933 91.1548 7.32743C91.1548 6.26856 91.8139 5.53928 92.7816 5.53928C93.7003 5.53928 94.3244 6.19143 94.3244 7.15212V7.39054H91.6246C91.6597 8.21799 92.0944 8.69483 92.8237 8.69483C93.3777 8.69483 93.7353 8.45641 93.8615 8.00762H94.3244C94.142 8.72288 93.6161 9.10856 92.8167 9.10856ZM92.7816 5.95301C92.1435 5.95301 91.7228 6.37375 91.6386 7.03992H93.8405C93.8405 6.38777 93.4198 5.95301 92.7816 5.95301ZM97.148 9.02441H96.6361L98.4803 4.00357H99.1044L100.97 9.02441H100.444L99.9529 7.69207H97.6388L97.148 9.02441ZM98.7258 4.71182L97.7931 7.25029H99.7916L98.852 4.71182C98.8309 4.6417 98.7959 4.55755 98.7889 4.50846C98.7819 4.55054 98.7538 4.6417 98.7258 4.71182ZM101.562 10.504V5.63044H101.983L102.032 6.31765C102.271 5.79172 102.748 5.53928 103.316 5.53928C104.297 5.53928 104.886 6.2896 104.886 7.3134C104.886 8.3372 104.318 9.10856 103.316 9.10856C102.741 9.10856 102.285 8.86313 102.046 8.37227V10.504H101.562ZM102.053 7.32743C102.053 8.1058 102.488 8.6738 103.231 8.6738C103.968 8.6738 104.395 8.1058 104.395 7.32743C104.395 6.54204 103.968 5.98106 103.231 5.98106C102.488 5.98106 102.053 6.54204 102.053 7.32743ZM105.658 10.504V5.63044H106.078L106.127 6.31765C106.366 5.79172 106.843 5.53928 107.411 5.53928C108.392 5.53928 108.981 6.2896 108.981 7.3134C108.981 8.3372 108.413 9.10856 107.411 9.10856C106.836 9.10856 106.38 8.86313 106.141 8.37227V10.504H105.658ZM106.148 7.32743C106.148 8.1058 106.583 8.6738 107.327 8.6738C108.063 8.6738 108.491 8.1058 108.491 7.32743C108.491 6.54204 108.063 5.98106 107.327 5.98106C106.583 5.98106 106.148 6.54204 106.148 7.32743Z" fill="#2251D1"/>
<path d="M5.47926 26.3479C5.07243 26.3479 4.68227 26.1863 4.3946 25.8986C4.10692 25.611 3.94531 25.2208 3.94531 24.814C3.94531 24.4071 4.10692 24.017 4.3946 23.7293C4.68227 23.4416 5.07243 23.28 5.47926 23.28H21.5857C23.1197 23.28 24.6536 26.3479 23.8867 26.3479H5.47926ZM26.9546 26.3479C26.5477 26.3479 26.1576 26.1863 25.8699 25.8986C25.5822 25.611 25.4206 25.2208 25.4206 24.814C25.4206 24.4071 25.5822 24.017 25.8699 23.7293C26.1576 23.4416 26.5477 23.28 26.9546 23.28H33.0904C33.4972 23.28 33.8874 23.4416 34.175 23.7293C34.4627 24.017 34.6243 24.4071 34.6243 24.814C34.6243 25.2208 34.4627 25.611 34.175 25.8986C33.8874 26.1863 33.4972 26.3479 33.0904 26.3479H26.9546ZM20.2558 5.64111C20.4588 5.28839 20.7936 5.03076 21.1866 4.9249C21.5795 4.81904 21.9985 4.87361 22.3512 5.07662C22.7039 5.27963 22.9615 5.61444 23.0674 6.0074C23.1733 6.40036 23.1187 6.81927 22.9157 7.172L12.3207 25.5733C12.2203 25.7479 12.0864 25.9011 11.9268 26.024C11.7672 26.1469 11.5849 26.2372 11.3904 26.2897C11.1959 26.3422 10.993 26.3559 10.7932 26.3299C10.5934 26.304 10.4007 26.2389 10.2261 26.1385C10.0514 26.0381 9.89826 25.9043 9.77534 25.7447C9.65241 25.5851 9.56212 25.4028 9.50963 25.2083C9.45715 25.0138 9.44348 24.8109 9.46942 24.6111C9.49536 24.4113 9.56039 24.2186 9.66081 24.0439L20.2558 5.64111ZM7.01321 28.6488C7.78019 27.1149 12.382 25.5809 10.8481 28.2193C10.0158 29.6424 9.18082 31.0638 8.34315 32.4837C8.14014 32.8364 7.80533 33.0941 7.41237 33.1999C7.01941 33.3058 6.60049 33.2512 6.24777 33.0482C5.89505 32.8452 5.63742 32.5104 5.53156 32.1174C5.4257 31.7245 5.48027 31.3056 5.68328 30.9528L7.01321 28.6488ZM14.887 7.172C14.684 6.81927 14.6294 6.40036 14.7353 6.0074C14.8411 5.61444 15.0988 5.27963 15.4515 5.07662C15.8042 4.87361 16.2231 4.81904 16.6161 4.9249C17.009 5.03076 17.3438 5.28839 17.5469 5.64111L20.2205 10.2874C20.3242 10.4621 20.3922 10.6557 20.4205 10.8569C20.4488 11.058 20.4369 11.2628 20.3854 11.4594C20.3339 11.6559 20.2439 11.8402 20.1206 12.0017C19.9973 12.1631 19.8431 12.2985 19.667 12.3998C19.491 12.5012 19.2966 12.5666 19.095 12.5923C18.8935 12.6179 18.6889 12.6032 18.493 12.5491C18.2972 12.495 18.1141 12.4026 17.9543 12.2771C17.7945 12.1517 17.6612 11.9957 17.5622 11.8183L14.887 7.172ZM20.8188 17.9112C19.4413 15.6103 20.8188 11.0084 21.9171 13.3032L32.1178 30.9498C32.3144 31.3019 32.3645 31.7173 32.2571 32.106C32.1497 32.4948 31.8935 32.8256 31.544 33.0268C31.1945 33.2281 30.7798 33.2836 30.3897 33.1814C29.9996 33.0792 29.6654 32.8274 29.4595 32.4806L20.8188 17.9112Z" fill="#2251D1"/>
</svg>
