<svg width="169" height="62" viewBox="0 0 169 62" fill="none" xmlns="http://www.w3.org/2000/svg">
<rect width="168.296" height="61.358" rx="10.5185" fill="white"/>
<path d="M82.2596 39.4307H79.6931V43.0491H78.3187V32.9092H82.2596C84.2511 32.9092 85.5274 34.2135 85.5274 36.1629C85.5274 38.0563 84.2371 39.4307 82.2596 39.4307ZM82.0212 34.1434H79.6931V38.1965H81.9651C83.3255 38.1965 84.0828 37.3971 84.0828 36.1489C84.0828 34.8727 83.3115 34.1434 82.0212 34.1434ZM88.2061 43.0491H86.8878V32.7269H88.2061V43.0491ZM92.1523 43.2174C90.6797 43.2174 89.8102 42.3899 89.8102 41.1417C89.8102 39.8795 90.7498 39.0941 92.3627 38.9679L94.5225 38.7996V38.6032C94.5225 37.4532 93.8353 37.0465 92.9096 37.0465C91.8017 37.0465 91.1706 37.5374 91.1706 38.3648H90.0206C90.0206 36.9343 91.1986 35.9947 92.9657 35.9947C94.6627 35.9947 95.8127 36.8922 95.8127 38.7435V43.0491H94.6908L94.5505 41.9411C94.1999 42.7265 93.2603 43.2174 92.1523 43.2174ZM92.531 42.1936C93.7792 42.1936 94.5365 41.3801 94.5365 40.0899V39.7252L92.7834 39.8655C91.6194 39.9777 91.1425 40.4265 91.1425 41.0996C91.1425 41.8289 91.6755 42.1936 92.531 42.1936ZM96.815 46.1205V45.0406H97.6985C98.3296 45.0406 98.8345 44.9424 99.1571 44.0729L99.3955 43.4137L96.6326 36.191H98.0211L100.013 41.7167L102.046 36.191H103.407L100.167 44.5918C99.7041 45.7699 99.0168 46.2607 97.965 46.2607C97.5302 46.2607 97.1656 46.2046 96.815 46.1205ZM107.929 35.644C107.929 33.905 109.332 32.7269 111.421 32.7269C113.357 32.7269 114.605 33.8068 114.717 35.5599H113.329C113.259 34.5501 112.543 33.9611 111.407 33.9611C110.131 33.9611 109.304 34.6062 109.304 35.602C109.304 36.4154 109.767 36.9063 110.72 37.1307L112.389 37.5233C114.044 37.902 114.886 38.7996 114.886 40.2301C114.886 42.0533 113.469 43.2174 111.309 43.2174C109.248 43.2174 107.873 42.1375 107.789 40.3984H109.192C109.22 41.3661 110.033 41.9832 111.309 41.9832C112.656 41.9832 113.511 41.3521 113.511 40.3423C113.511 39.5429 113.076 39.038 112.109 38.8136L110.44 38.4349C108.785 38.0563 107.929 37.1026 107.929 35.644ZM118.324 43.0491H117.005V37.2989H115.659V36.191H117.005V34.0452H118.324V36.191H119.67V37.2989H118.324V43.0491ZM120.336 39.613C120.336 37.4953 121.851 36.0087 123.912 36.0087C125.96 36.0087 127.474 37.4953 127.474 39.613C127.474 41.7308 125.96 43.2174 123.912 43.2174C121.851 43.2174 120.336 41.7308 120.336 39.613ZM121.668 39.613C121.668 41.0435 122.58 42.0393 123.912 42.0393C125.231 42.0393 126.156 41.0435 126.156 39.613C126.156 38.1825 125.231 37.1868 123.912 37.1868C122.58 37.1868 121.668 38.1825 121.668 39.613ZM132.861 36.1349V37.341H132.272C131.023 37.341 130.252 38.0984 130.252 39.4167V43.0491H128.934V36.205H130.168L130.252 37.2428C130.533 36.5276 131.22 36.0508 132.159 36.0508C132.398 36.0508 132.594 36.0788 132.861 36.1349ZM136.81 43.2174C134.79 43.2174 133.402 41.7588 133.402 39.627C133.402 37.4813 134.762 35.9947 136.754 35.9947C138.703 35.9947 139.979 37.341 139.979 39.3746V39.8655L134.678 39.8795C134.776 41.324 135.534 42.1234 136.838 42.1234C137.862 42.1234 138.535 41.7027 138.759 40.9173H139.993C139.657 42.3899 138.507 43.2174 136.81 43.2174ZM136.754 37.1026C135.604 37.1026 134.874 37.7898 134.706 38.9959H138.661C138.661 37.8599 137.918 37.1026 136.754 37.1026Z" fill="#2251D1"/>
<path d="M79.8544 16.3963C78.6974 16.3963 77.9681 17.2518 77.9681 18.535C77.9681 19.8393 78.7394 20.6317 79.8684 20.6317C80.7099 20.6317 81.5304 20.225 81.5304 19.0189V18.7594H79.7142V18.3106H82.0072V21.0314H81.6075L81.5584 20.232C81.2919 20.7299 80.6608 21.1086 79.8474 21.1086C78.4239 21.1086 77.4422 20.0848 77.4422 18.535C77.4422 16.9993 78.4239 15.9194 79.8614 15.9194C80.9203 15.9194 81.7407 16.5225 81.9371 17.4341H81.3901C81.1797 16.7469 80.5907 16.3963 79.8544 16.3963ZM84.3283 21.1086C83.3325 21.1086 82.6664 20.3933 82.6664 19.3274C82.6664 18.2686 83.3255 17.5393 84.2932 17.5393C85.2118 17.5393 85.8359 18.1914 85.8359 19.1521V19.3905H83.1362C83.1712 20.218 83.606 20.6948 84.3353 20.6948C84.8893 20.6948 85.2469 20.4564 85.3731 20.0076H85.8359C85.6536 20.7229 85.1277 21.1086 84.3283 21.1086ZM84.2932 17.953C83.6551 17.953 83.2344 18.3737 83.1502 19.0399H85.3521C85.3521 18.3878 84.9313 17.953 84.2932 17.953ZM87.3537 21.0244H86.8768V18.0372H86.1966V17.6304H86.8768V16.5575H87.3537V17.6304H88.0339V18.0372H87.3537V21.0244ZM91.3871 21.0244H90.9103V18.0372H90.2301V17.6304H90.9103V16.5575H91.3871V17.6304H92.0673V18.0372H91.3871V21.0244ZM93.1813 21.0174H92.6974V15.9124H93.1813V18.2195C93.3986 17.8128 93.8124 17.5393 94.3804 17.5393C95.2709 17.5393 95.6706 18.0933 95.6706 18.9488V21.0244H95.1868V19.0539C95.1868 18.2615 94.8151 17.9811 94.2892 17.9811C93.5599 17.9811 93.1813 18.521 93.1813 19.1732V21.0174ZM98.0585 21.1086C97.0628 21.1086 96.3966 20.3933 96.3966 19.3274C96.3966 18.2686 97.0557 17.5393 98.0234 17.5393C98.9421 17.5393 99.5662 18.1914 99.5662 19.1521V19.3905H96.8664C96.9015 20.218 97.3362 20.6948 98.0655 20.6948C98.6195 20.6948 98.9771 20.4564 99.1033 20.0076H99.5662C99.3838 20.7229 98.8579 21.1086 98.0585 21.1086ZM98.0234 17.953C97.3853 17.953 96.9646 18.3737 96.8804 19.0399H99.0823C99.0823 18.3878 98.6616 17.953 98.0234 17.953ZM102.39 21.0244H101.878L103.722 16.0036H104.346L106.212 21.0244H105.686L105.195 19.6921H102.881L102.39 21.0244ZM103.968 16.7118L103.035 19.2503H105.033L104.094 16.7118C104.073 16.6417 104.038 16.5575 104.031 16.5085C104.024 16.5505 103.996 16.6417 103.968 16.7118ZM106.804 22.504V17.6304H107.225L107.274 18.3176C107.513 17.7917 107.989 17.5393 108.557 17.5393C109.539 17.5393 110.128 18.2896 110.128 19.3134C110.128 20.3372 109.56 21.1086 108.557 21.1086C107.982 21.1086 107.527 20.8631 107.288 20.3723V22.504H106.804ZM107.295 19.3274C107.295 20.1058 107.73 20.6738 108.473 20.6738C109.21 20.6738 109.637 20.1058 109.637 19.3274C109.637 18.542 109.21 17.9811 108.473 17.9811C107.73 17.9811 107.295 18.542 107.295 19.3274ZM110.899 22.504V17.6304H111.32L111.369 18.3176C111.608 17.7917 112.084 17.5393 112.652 17.5393C113.634 17.5393 114.223 18.2896 114.223 19.3134C114.223 20.3372 113.655 21.1086 112.652 21.1086C112.077 21.1086 111.622 20.8631 111.383 20.3723V22.504H110.899ZM111.39 19.3274C111.39 20.1058 111.825 20.6738 112.568 20.6738C113.305 20.6738 113.732 20.1058 113.732 19.3274C113.732 18.542 113.305 17.9811 112.568 17.9811C111.825 17.9811 111.39 18.542 111.39 19.3274Z" fill="#2251D1"/>
<path d="M29.75 16.5486V44.8069C29.7502 44.8682 29.7685 44.9281 29.8026 44.979C29.8367 45.03 29.885 45.0697 29.9416 45.0933C29.9982 45.1169 30.0605 45.1232 30.1207 45.1116C30.1809 45.0999 30.2363 45.0707 30.2799 45.0276L44.9936 30.6785L30.2799 16.3279C30.2363 16.2848 30.1809 16.2556 30.1207 16.244C30.0605 16.2323 29.9982 16.2386 29.9416 16.2622C29.885 16.2858 29.8367 16.3255 29.8026 16.3765C29.7685 16.4274 29.7502 16.4873 29.75 16.5486ZM51.163 24.7824L32.7139 14.618L32.7024 14.6115C32.3846 14.439 32.0826 14.869 32.3429 15.1192L46.8049 28.9477L51.163 24.7824ZM32.3443 46.2378C32.0826 46.488 32.3846 46.918 32.7038 46.7454L32.7153 46.7389L51.163 36.5746L46.8049 32.4078L32.3443 46.2378ZM58.6108 28.8809L53.4589 26.0435L48.6147 30.6785L53.4589 35.3112L58.6108 32.4761C60.0122 31.7017 60.0122 29.6553 58.6108 28.8809Z" fill="#2251D1"/>
</svg>
