<svg width="116" height="38" viewBox="0 0 116 38" fill="none" xmlns="http://www.w3.org/2000/svg">
<path d="M56.2596 27.4307H53.6931V31.0491H52.3187V20.9092H56.2596C58.2511 20.9092 59.5274 22.2135 59.5274 24.1629C59.5274 26.0563 58.2371 27.4307 56.2596 27.4307ZM56.0212 22.1434H53.6931V26.1965H55.9651C57.3255 26.1965 58.0828 25.3971 58.0828 24.1489C58.0828 22.8727 57.3115 22.1434 56.0212 22.1434ZM62.2061 31.0491H60.8878V20.7269H62.2061V31.0491ZM66.1523 31.2174C64.6797 31.2174 63.8102 30.3899 63.8102 29.1417C63.8102 27.8795 64.7498 27.0941 66.3627 26.9679L68.5225 26.7996V26.6032C68.5225 25.4532 67.8353 25.0465 66.9096 25.0465C65.8017 25.0465 65.1706 25.5374 65.1706 26.3648H64.0206C64.0206 24.9343 65.1986 23.9947 66.9657 23.9947C68.6627 23.9947 69.8127 24.8922 69.8127 26.7435V31.0491H68.6908L68.5505 29.9411C68.1999 30.7265 67.2603 31.2174 66.1523 31.2174ZM66.531 30.1936C67.7792 30.1936 68.5365 29.3801 68.5365 28.0899V27.7252L66.7834 27.8655C65.6194 27.9777 65.1425 28.4265 65.1425 29.0996C65.1425 29.8289 65.6755 30.1936 66.531 30.1936ZM70.815 34.1205V33.0406H71.6985C72.3296 33.0406 72.8345 32.9424 73.1571 32.0729L73.3955 31.4137L70.6326 24.191H72.0211L74.0126 29.7167L76.0462 24.191H77.4066L74.1669 32.5918C73.7041 33.7699 73.0168 34.2607 71.965 34.2607C71.5302 34.2607 71.1656 34.2046 70.815 34.1205ZM81.9293 23.644C81.9293 21.905 83.3318 20.7269 85.4215 20.7269C87.3569 20.7269 88.6051 21.8068 88.7173 23.5599H87.3288C87.2587 22.5501 86.5434 21.9611 85.4074 21.9611C84.1312 21.9611 83.3037 22.6062 83.3037 23.602C83.3037 24.4154 83.7666 24.9063 84.7202 25.1307L86.3892 25.5233C88.0441 25.902 88.8856 26.7996 88.8856 28.2301C88.8856 30.0533 87.4691 31.2174 85.3093 31.2174C83.2476 31.2174 81.8732 30.1375 81.7891 28.3984H83.1915C83.2196 29.3661 84.033 29.9832 85.3093 29.9832C86.6556 29.9832 87.5111 29.3521 87.5111 28.3423C87.5111 27.5429 87.0764 27.038 86.1087 26.8136L84.4397 26.4349C82.7848 26.0563 81.9293 25.1026 81.9293 23.644ZM92.3237 31.0491H91.0054V25.2989H89.659V24.191H91.0054V22.0452H92.3237V24.191H93.6701V25.2989H92.3237V31.0491ZM94.3359 27.613C94.3359 25.4953 95.8506 24.0087 97.9122 24.0087C99.9598 24.0087 101.474 25.4953 101.474 27.613C101.474 29.7308 99.9598 31.2174 97.9122 31.2174C95.8506 31.2174 94.3359 29.7308 94.3359 27.613ZM95.6683 27.613C95.6683 29.0435 96.5799 30.0393 97.9122 30.0393C99.2305 30.0393 100.156 29.0435 100.156 27.613C100.156 26.1825 99.2305 25.1868 97.9122 25.1868C96.5799 25.1868 95.6683 26.1825 95.6683 27.613ZM106.861 24.1349V25.341H106.272C105.023 25.341 104.252 26.0984 104.252 27.4167V31.0491H102.934V24.205H104.168L104.252 25.2428C104.533 24.5276 105.22 24.0508 106.159 24.0508C106.398 24.0508 106.594 24.0788 106.861 24.1349ZM110.81 31.2174C108.79 31.2174 107.402 29.7588 107.402 27.627C107.402 25.4813 108.762 23.9947 110.754 23.9947C112.703 23.9947 113.979 25.341 113.979 27.3746V27.8655L108.678 27.8795C108.776 29.324 109.534 30.1234 110.838 30.1234C111.862 30.1234 112.535 29.7027 112.759 28.9173H113.993C113.657 30.3899 112.507 31.2174 110.81 31.2174ZM110.754 25.1026C109.604 25.1026 108.874 25.7898 108.706 26.9959H112.661C112.661 25.8599 111.918 25.1026 110.754 25.1026Z" fill="#2251D1"/>
<path d="M53.8544 4.39627C52.6974 4.39627 51.9681 5.25177 51.9681 6.53503C51.9681 7.83933 52.7394 8.63172 53.8684 8.63172C54.7099 8.63172 55.5304 8.22501 55.5304 7.01888V6.75943H53.7142V6.31064H56.0072V9.03143H55.6075L55.5584 8.23202C55.2919 8.7299 54.6608 9.10856 53.8474 9.10856C52.4239 9.10856 51.4422 8.08476 51.4422 6.53503C51.4422 4.99933 52.4239 3.91943 53.8614 3.91943C54.9203 3.91943 55.7407 4.52249 55.9371 5.43409H55.3901C55.1797 4.74688 54.5907 4.39627 53.8544 4.39627ZM58.3283 9.10856C57.3325 9.10856 56.6664 8.3933 56.6664 7.32743C56.6664 6.26856 57.3255 5.53928 58.2932 5.53928C59.2118 5.53928 59.8359 6.19143 59.8359 7.15212V7.39054H57.1362C57.1712 8.21799 57.606 8.69483 58.3353 8.69483C58.8893 8.69483 59.2469 8.45641 59.3731 8.00762H59.8359C59.6536 8.72288 59.1277 9.10856 58.3283 9.10856ZM58.2932 5.95301C57.6551 5.95301 57.2344 6.37375 57.1502 7.03992H59.3521C59.3521 6.38777 58.9313 5.95301 58.2932 5.95301ZM61.3537 9.02441H60.8768V6.03715H60.1966V5.63044H60.8768V4.55755H61.3537V5.63044H62.0339V6.03715H61.3537V9.02441ZM65.3871 9.02441H64.9103V6.03715H64.2301V5.63044H64.9103V4.55755H65.3871V5.63044H66.0673V6.03715H65.3871V9.02441ZM67.1813 9.0174H66.6974V3.91241H67.1813V6.21948C67.3986 5.81276 67.8124 5.53928 68.3804 5.53928C69.2709 5.53928 69.6706 6.09325 69.6706 6.94876V9.02441H69.1868V7.05394C69.1868 6.26155 68.8151 5.98106 68.2892 5.98106C67.5599 5.98106 67.1813 6.52101 67.1813 7.17315V9.0174ZM72.0585 9.10856C71.0628 9.10856 70.3966 8.3933 70.3966 7.32743C70.3966 6.26856 71.0557 5.53928 72.0234 5.53928C72.9421 5.53928 73.5662 6.19143 73.5662 7.15212V7.39054H70.8664C70.9015 8.21799 71.3362 8.69483 72.0655 8.69483C72.6195 8.69483 72.9771 8.45641 73.1033 8.00762H73.5662C73.3838 8.72288 72.8579 9.10856 72.0585 9.10856ZM72.0234 5.95301C71.3853 5.95301 70.9646 6.37375 70.8804 7.03992H73.0823C73.0823 6.38777 72.6616 5.95301 72.0234 5.95301ZM76.3898 9.02441H75.8779L77.7221 4.00357H78.3462L80.2115 9.02441H79.6856L79.1947 7.69207H76.8806L76.3898 9.02441ZM77.9676 4.71182L77.0349 7.25029H79.0334L78.0938 4.71182C78.0727 4.6417 78.0377 4.55755 78.0307 4.50846C78.0237 4.55054 77.9956 4.6417 77.9676 4.71182ZM80.8043 10.504V5.63044H81.225L81.2741 6.31765C81.5125 5.79172 81.9894 5.53928 82.5574 5.53928C83.5391 5.53928 84.1281 6.2896 84.1281 7.3134C84.1281 8.3372 83.5601 9.10856 82.5574 9.10856C81.9823 9.10856 81.5265 8.86313 81.2881 8.37227V10.504H80.8043ZM81.2951 7.32743C81.2951 8.1058 81.7299 8.6738 82.4732 8.6738C83.2095 8.6738 83.6373 8.1058 83.6373 7.32743C83.6373 6.54204 83.2095 5.98106 82.4732 5.98106C81.7299 5.98106 81.2951 6.54204 81.2951 7.32743ZM84.8994 10.504V5.63044H85.3201L85.3692 6.31765C85.6076 5.79172 86.0845 5.53928 86.6525 5.53928C87.6342 5.53928 88.2232 6.2896 88.2232 7.3134C88.2232 8.3372 87.6552 9.10856 86.6525 9.10856C86.0774 9.10856 85.6216 8.86313 85.3832 8.37227V10.504H84.8994ZM85.3902 7.32743C85.3902 8.1058 85.825 8.6738 86.5683 8.6738C87.3046 8.6738 87.7324 8.1058 87.7324 7.32743C87.7324 6.54204 87.3046 5.98106 86.5683 5.98106C85.825 5.98106 85.3902 6.54204 85.3902 7.32743Z" fill="#2251D1"/>
<path d="M3.75 4.54863V32.8069C3.75019 32.8682 3.76847 32.9281 3.80256 32.979C3.83665 33.03 3.88503 33.0697 3.94162 33.0933C3.99822 33.1169 4.06051 33.1232 4.1207 33.1116C4.18088 33.0999 4.23627 33.0707 4.27993 33.0276L18.9936 18.6785L4.27993 4.32789C4.23627 4.28484 4.18088 4.25565 4.1207 4.24396C4.06051 4.23227 3.99822 4.23861 3.94162 4.26219C3.88503 4.28576 3.83665 4.32552 3.80256 4.37648C3.76847 4.42744 3.75019 4.48732 3.75 4.54863ZM25.163 12.7824L6.71388 2.61801L6.70238 2.61154C6.38456 2.43897 6.08256 2.86896 6.34286 3.11918L20.8049 16.9477L25.163 12.7824ZM6.34429 34.2378C6.08256 34.488 6.38456 34.918 6.70381 34.7454L6.71532 34.7389L25.163 24.5746L20.8049 20.4078L6.34429 34.2378ZM32.6108 16.8809L27.4589 14.0435L22.6147 18.6785L27.4589 23.3112L32.6108 20.4761C34.0122 19.7017 34.0122 17.6553 32.6108 16.8809Z" fill="#2251D1"/>
</svg>
