<svg width="85" height="110" viewBox="0 0 85 110" fill="none" xmlns="http://www.w3.org/2000/svg">
<path d="M52.7708 23.3749C52.7708 23.3749 52.0625 23.65 50.8583 24.1541C50.6458 23.3291 50.3625 22.275 49.9375 21.2666C48.5917 17.9208 46.6083 16.1791 44.2 16.1333C44.0229 16.1333 43.8812 16.1333 43.7042 16.1791C43.6333 16.0874 43.5625 15.9499 43.4917 15.8583C42.4646 14.3916 41.1187 13.7041 39.525 13.7499C36.4437 13.8874 33.3625 16.775 30.8479 21.9083C29.0771 25.5291 27.7667 30.0666 27.3771 33.5499C23.8354 34.9708 21.3562 35.9791 21.2854 35.9791C19.4792 36.7125 19.4437 36.8041 19.1958 38.9583C19.0187 40.6083 14.3438 87.5416 14.3438 87.5416L53.2312 96.25V23.2833C53.0542 23.2833 52.8771 23.3291 52.7708 23.3749ZM43.775 26.9958C41.7208 27.8208 39.4542 28.7375 37.2229 29.6083C37.8604 26.4458 39.0646 23.3291 40.5521 21.2666C41.1187 20.4874 41.8625 19.6624 42.7833 19.1583C43.6333 21.4958 43.8104 24.7499 43.775 26.9958ZM39.5604 16.4083C40.2687 16.4083 40.9062 16.5916 41.4375 17.0499C40.5875 17.6 39.8083 18.425 39.0292 19.4791C37.0812 22.1833 35.5583 26.4458 34.9562 30.525C33.0792 31.2583 31.2729 31.9916 29.5729 32.6791C30.6354 26.2166 34.8146 16.5916 39.5604 16.4083ZM33.5396 53.0291C33.7521 57.2916 42.4646 58.2541 42.9604 68.2916C43.35 76.1749 39.7375 81.5833 34.4958 81.9958C28.2625 82.4999 24.7917 77.7333 24.7917 77.7333L26.1021 70.4458C26.1021 70.4458 29.5729 73.8374 32.3354 73.6083C34.1417 73.4708 34.7792 71.5458 34.7437 70.2166C34.4604 64.625 27.3771 64.9458 26.9521 55.7791C26.5625 48.0333 30.4937 40.2416 39.1354 39.5083C42.5 39.2333 44.2 40.3333 44.2 40.3333L42.2167 49.9125C42.2167 49.9125 40.0208 48.6291 37.4 48.8124C33.575 49.1333 33.5042 52.25 33.5396 53.0291ZM45.8292 26.1708C45.7937 24.1541 45.6167 21.3124 44.8729 18.8833C47.2104 19.4791 48.3792 22.8708 48.875 24.9333C47.9896 25.3 46.9625 25.7125 45.8292 26.1708ZM54.5062 96.0666L70.6562 90.8875C70.6562 90.8875 63.7146 30.1125 63.6792 29.7C63.6437 29.2875 63.3604 29.0583 63.1125 29.0125C62.8646 28.9666 58.3312 28.875 58.3312 28.875C58.3312 28.875 55.5687 25.3916 54.5062 24.0625V96.0666Z" fill="black"/>
</svg>
