<svg width="85" height="63" viewBox="0 0 85 63" fill="none" xmlns="http://www.w3.org/2000/svg">
<g clip-path="url(#clip0_0_240)">
<path d="M15.457 62.3465V58.2119C15.457 56.6266 14.4363 55.5932 12.6868 55.5932C11.8122 55.5932 10.8646 55.8688 10.2085 56.7647C9.69853 56.0066 8.96973 55.5932 7.87635 55.5932C7.14721 55.5932 6.41873 55.7997 5.83535 56.5578V55.731H4.30469V62.3465H5.83535V58.6941C5.83535 57.5228 6.49145 56.9713 7.51211 56.9713C8.53211 56.9713 9.04277 57.5916 9.04277 58.6941V62.3465H10.5734V58.6941C10.5734 57.5228 11.3019 56.9713 12.2495 56.9713C13.2702 56.9713 13.7802 57.5916 13.7802 58.6941V62.3465H15.457ZM38.1251 55.731H35.6471V53.7325H34.1164V55.731H32.7315V57.04H34.1161V60.0725C34.1161 61.5887 34.7722 62.4843 36.5217 62.4843C37.1778 62.4843 37.9063 62.2778 38.4169 62.0022L37.9793 60.7615C37.542 61.0372 37.032 61.1062 36.6674 61.1062C35.9386 61.1062 35.6471 60.6928 35.6471 60.0034V57.04H38.1251V55.731ZM51.0995 55.5928C50.2249 55.5928 49.6419 56.0066 49.2773 56.5578V55.731H47.7467V62.3465H49.2773V58.6253C49.2773 57.5228 49.7873 56.9025 50.7349 56.9025C51.0265 56.9025 51.391 56.9716 51.6826 57.0403L52.1198 55.6622C51.8283 55.5932 51.391 55.5932 51.0995 55.5932M31.4924 56.2825C30.7633 55.8 29.7429 55.5935 28.6496 55.5935C26.9004 55.5935 25.7343 56.4203 25.7343 57.7297C25.7343 58.8325 26.6089 59.4525 28.1396 59.6594L28.8684 59.7284C29.6702 59.8659 30.1075 60.0728 30.1075 60.4175C30.1075 60.8997 29.5245 61.2443 28.5038 61.2443C27.4835 61.2443 26.6816 60.8997 26.1713 60.5553L25.4425 61.6578C26.2443 62.209 27.3377 62.4846 28.4307 62.4846C30.4717 62.4846 31.6382 61.589 31.6382 60.3484C31.6382 59.1769 30.6905 58.5566 29.2326 58.35L28.5038 58.2809C27.8477 58.2119 27.3377 58.0744 27.3377 57.6609C27.3377 57.1785 27.8477 56.9028 28.6496 56.9028C29.5245 56.9028 30.399 57.2472 30.8363 57.4541L31.4924 56.2825ZM72.1646 55.5935C71.2897 55.5935 70.7066 56.0069 70.3421 56.5581V55.7313H68.8114V62.3468H70.3421V58.6256C70.3421 57.5231 70.8524 56.9028 71.7997 56.9028C72.0915 56.9028 72.4561 56.9719 72.7476 57.0406L73.1849 55.6625C72.8934 55.5935 72.4561 55.5935 72.1646 55.5935ZM52.6302 59.0391C52.6302 61.0375 54.0878 62.4846 56.3476 62.4846C57.3679 62.4846 58.0967 62.2781 58.8256 61.7268L58.0967 60.5553C57.5137 60.9687 56.9306 61.1753 56.2746 61.1753C55.0354 61.1753 54.1608 60.3484 54.1608 59.0391C54.1608 57.7988 55.0354 56.9716 56.2746 56.9028C56.9306 56.9028 57.5137 57.1094 58.0967 57.5231L58.8256 56.3516C58.0967 55.8 57.3679 55.5935 56.3476 55.5935C54.0878 55.5935 52.6302 57.0406 52.6302 59.0391ZM66.7707 59.0391V55.7313H65.2401V56.5581C64.7297 55.9382 64.0009 55.5935 63.0533 55.5935C61.0854 55.5935 59.5547 57.0406 59.5547 59.0391C59.5547 61.0375 61.0854 62.4846 63.0533 62.4846C64.0736 62.4846 64.8028 62.1403 65.2401 61.52V62.3468H66.7707V59.0391ZM61.1581 59.0391C61.1581 57.8675 61.9599 56.9028 63.2718 56.9028C64.5109 56.9028 65.3858 57.7988 65.3858 59.0391C65.3858 60.2106 64.5109 61.1753 63.2718 61.1753C61.9599 61.1062 61.1581 60.2106 61.1581 59.0391ZM42.8631 55.5935C40.8221 55.5935 39.3642 56.9716 39.3642 59.0391C39.3642 61.1065 40.8218 62.4846 42.9359 62.4846C43.9562 62.4846 44.9769 62.209 45.7787 61.589L45.0496 60.5553C44.4665 60.9687 43.7377 61.2443 43.0089 61.2443C42.0613 61.2443 41.1137 60.8309 40.8949 59.659H46.0702V59.1081C46.1433 56.9716 44.8314 55.5935 42.8631 55.5935ZM42.8628 56.8338C43.8101 56.8338 44.4665 57.3853 44.612 58.4191H40.9676C41.1133 57.5231 41.7694 56.8338 42.8628 56.8338ZM80.8379 59.0391V53.1125H79.3072V56.5581C78.7969 55.9382 78.0681 55.5935 77.1205 55.5935C75.1525 55.5935 73.6219 57.0406 73.6219 59.0391C73.6219 61.0375 75.1525 62.4846 77.1205 62.4846C78.1411 62.4846 78.8699 62.1403 79.3072 61.52V62.3468H80.8379V59.0391ZM75.2256 59.0391C75.2256 57.8675 76.0271 56.9028 77.3393 56.9028C78.5784 56.9028 79.453 57.7988 79.453 59.0391C79.453 60.2106 78.5784 61.1753 77.3393 61.1753C76.0271 61.1062 75.2256 60.2106 75.2256 59.0391ZM24.0572 59.0391V55.7313H22.5266V56.5581C22.0162 55.9382 21.2874 55.5935 20.3398 55.5935C18.3719 55.5935 16.8412 57.0406 16.8412 59.0391C16.8412 61.0375 18.3719 62.4846 20.3398 62.4846C21.3605 62.4846 22.0893 62.1403 22.5266 61.52V62.3468H24.0572V59.0391ZM18.3719 59.0391C18.3719 57.8675 19.1737 56.9028 20.4856 56.9028C21.7247 56.9028 22.5996 57.7988 22.5996 59.0391C22.5996 60.2106 21.7247 61.1753 20.4856 61.1753C19.1737 61.1062 18.3719 60.2106 18.3719 59.0391Z" fill="black"/>
<path d="M30.9766 5.49243H53.9365V44.4974H30.9766V5.49243Z" fill="#FF5F00"/>
<path d="M32.4358 24.9956C32.4358 17.0707 36.3717 10.0414 42.4213 5.49296C37.9754 2.18519 32.3631 0.186768 26.2404 0.186768C11.735 0.186768 0 11.2817 0 24.9956C0 38.7092 11.735 49.8044 26.2401 49.8044C32.3628 49.8044 37.9751 47.806 42.4213 44.4979C36.3717 40.0186 32.4358 32.9205 32.4358 24.9956Z" fill="#EB001B"/>
<path d="M84.9135 24.9956C84.9135 38.7092 73.1785 49.8044 58.6734 49.8044C52.5507 49.8044 46.9384 47.806 42.4922 44.4979C48.6148 39.9498 52.478 32.9205 52.478 24.9956C52.478 17.0707 48.5418 10.0414 42.4922 5.49296C46.9381 2.18519 52.5507 0.186768 58.6734 0.186768C73.1785 0.186768 84.9135 11.3507 84.9135 24.9956Z" fill="#F79E1B"/>
</g>
<defs>
<clipPath id="clip0_0_240">
<rect width="85" height="62.4702" fill="white" transform="translate(0 0.186768)"/>
</clipPath>
</defs>
</svg>
