<svg width="25" height="24" viewBox="0 0 25 24" fill="none" xmlns="http://www.w3.org/2000/svg">
<path d="M16.0576 4.27271H9.06405C6.80746 4.27271 4.97852 6.10197 4.97852 8.35857V15.3514C4.97852 17.608 6.80778 19.4373 9.06438 19.4373H16.0572C18.3138 19.4373 20.1431 17.608 20.1431 15.3514V8.35857C20.1431 6.10197 18.3141 4.27271 16.0576 4.27271Z" stroke="#2251D1" stroke-width="0.648447" stroke-miterlimit="10"/>
<path d="M12.5609 15.5155C14.5825 15.5155 16.2214 13.8767 16.2214 11.8551C16.2214 9.83343 14.5825 8.19458 12.5609 8.19458C10.5392 8.19458 8.90039 9.83343 8.90039 11.8551C8.90039 13.8767 10.5392 15.5155 12.5609 15.5155Z" stroke="#2251D1" stroke-width="0.648447" stroke-miterlimit="10"/>
<path d="M17.005 8.19433C17.4382 8.19433 17.7893 7.84318 17.7893 7.41003C17.7893 6.97687 17.4382 6.62573 17.005 6.62573C16.5718 6.62573 16.2207 6.97687 16.2207 7.41003C16.2207 7.84318 16.5718 8.19433 17.005 8.19433Z" fill="#2251D1"/>
</svg>
