<svg width="24" height="24" viewBox="0 0 24 24" fill="none" xmlns="http://www.w3.org/2000/svg">
<path d="M7.06182 5.14822C7.06157 5.66415 6.85636 6.15886 6.49136 6.5235C6.12635 6.88814 5.63145 7.09284 5.11551 7.09259C4.59957 7.09233 4.10487 6.88713 3.74023 6.52212C3.37559 6.15712 3.17088 5.66221 3.17114 5.14627C3.1714 4.63034 3.3766 4.13563 3.74161 3.77099C4.10661 3.40635 4.60152 3.20165 5.11746 3.2019C5.63339 3.20216 6.12809 3.40736 6.49273 3.77237C6.85737 4.13737 7.06208 4.63228 7.06182 5.14822ZM7.12018 8.53311H3.2295V20.7109H7.12018V8.53311ZM13.2675 8.53311H9.39623V20.7109H13.2286V14.3205C13.2286 10.7605 17.8682 10.4298 17.8682 14.3205V20.7109H21.7102V12.9977C21.7102 6.99629 14.8432 7.22001 13.2286 10.1672L13.2675 8.53311Z" fill="#2251D1"/>
</svg>
