<svg width="24" height="24" viewBox="0 0 24 24" fill="none" xmlns="http://www.w3.org/2000/svg">
<path d="M20.1236 6.46168H15.1922V7.83315H20.1431L20.1236 6.46168ZM19.0829 15.8966C18.7088 16.1445 18.267 16.2702 17.8184 16.2565C17.5215 16.2874 17.2214 16.2568 16.9368 16.1664C16.6523 16.076 16.3895 15.9279 16.1649 15.7312C15.7495 15.2603 15.5333 14.6466 15.5618 14.0193H22.0009C22.0473 13.3662 21.9915 12.7099 21.8355 12.074C21.6846 11.469 21.4206 10.8981 21.0574 10.3913C20.6918 9.89968 20.2196 9.4973 19.6762 9.21434C19.0716 8.91625 18.4048 8.76623 17.7309 8.77664C17.097 8.77199 16.4686 8.89436 15.8828 9.13652C15.3464 9.36266 14.8603 9.69331 14.453 10.1092C14.0468 10.5334 13.7322 11.0367 13.5289 11.5877C13.3108 12.1825 13.202 12.8119 13.208 13.4455C13.1979 14.088 13.3034 14.7271 13.5192 15.3324C13.7025 15.8806 13.9936 16.3865 14.3752 16.8206C14.77 17.2468 15.2552 17.5792 15.7953 17.7933C16.3974 18.0227 17.0379 18.135 17.6822 18.124C18.5863 18.1522 19.4788 17.9155 20.2501 17.4431C21.0291 16.8896 21.59 16.0809 21.8355 15.1574H19.6859C19.5709 15.4629 19.3591 15.7225 19.0829 15.8966ZM15.7466 11.8892C15.8223 11.6467 15.948 11.4227 16.1155 11.2317C16.283 11.0408 16.4887 10.887 16.7193 10.7803C17.0247 10.6429 17.3572 10.5764 17.692 10.5858C17.9338 10.5651 18.1772 10.597 18.4055 10.6793C18.6339 10.7616 18.8417 10.8923 19.0148 11.0624C19.3453 11.467 19.5574 11.9551 19.6276 12.4728H15.591C15.6067 12.2751 15.6426 12.0796 15.698 11.8892H15.7466ZM10.6012 11.4223C11.0962 11.2162 11.5264 10.8801 11.8462 10.4496C12.1402 9.99248 12.2862 9.45588 12.2645 8.91281C12.2835 8.41756 12.1869 7.92468 11.9824 7.47326C11.8105 7.08216 11.5346 6.74573 11.1848 6.50059C10.8139 6.24572 10.3927 6.07326 9.94951 5.9948C9.42506 5.8848 8.89014 5.83262 8.35433 5.83917H2.54749V18.0754H8.48077C9.02225 18.0758 9.56156 18.0071 10.0857 17.8711C10.5825 17.7426 11.0531 17.5287 11.4766 17.2389C11.8868 16.9546 12.2208 16.5738 12.4493 16.13C12.7021 15.6338 12.8258 15.0818 12.8092 14.5251C12.8276 13.8352 12.6341 13.1563 12.2547 12.5798C11.8468 12 11.2417 11.5885 10.5526 11.4223H10.6012ZM5.24178 7.93041H7.761C7.99244 7.93013 8.22348 7.94965 8.45159 7.98877C8.66164 8.0199 8.86336 8.09265 9.04492 8.20276C9.22034 8.30199 9.36248 8.45089 9.45344 8.63074C9.5661 8.84639 9.61979 9.08798 9.60907 9.33106C9.62719 9.54041 9.59518 9.75107 9.51568 9.94559C9.43618 10.1401 9.31148 10.3129 9.15192 10.4496C8.80382 10.6889 8.38728 10.8084 7.96526 10.7901H5.24178V7.93041ZM9.94951 15.1671C9.84957 15.3653 9.69845 15.5332 9.5118 15.6534C9.31757 15.7742 9.10354 15.8598 8.87957 15.9063C8.63062 15.962 8.37596 15.9882 8.12089 15.9841H5.20287V12.6284H8.12089C8.62163 12.6065 9.11614 12.7463 9.53126 13.0272C9.7188 13.1955 9.86408 13.4056 9.95533 13.6405C10.0466 13.8754 10.0812 14.1284 10.0565 14.3792C10.0828 14.6466 10.0462 14.9164 9.94951 15.1671Z" fill="#2251D1"/>
</svg>
