<svg width="85" height="56" viewBox="0 0 85 56" fill="none" xmlns="http://www.w3.org/2000/svg">
<path d="M16.5279 51.5983V55.4597H0V51.5983H16.5279ZM42.3569 51.5983C40.699 54.0908 38.5273 55.4695 36.2752 55.4594L18.8889 55.4214V51.5983H42.3569ZM66.9319 51.5983L66.1074 55.4594L65.2903 51.5983H66.9319ZM59.0279 51.5983V55.4597H47.2223V51.5983H59.0279ZM85 51.5983V55.4597H73.1945V51.5983H85ZM45.0312 44.2275C44.8286 45.5819 44.5087 46.8821 44.0813 48.0886H18.8889V44.2275H45.0312ZM68.5142 44.2275L67.6856 48.0889H64.5368L63.708 44.2275H68.5142ZM59.0279 44.2275V48.0886H47.2223V44.2275H59.0279ZM85 44.2275V48.0886H73.1945V44.2275H85ZM16.5279 44.2275V48.0886H0V44.2275H16.5279ZM11.8054 36.8559V40.7172H4.72215V36.8559H11.8054ZM30.6943 36.8559V40.7172H23.6109V36.8559H30.6943ZM44.9745 36.8559C45.1837 38.1145 45.2899 39.413 45.2902 40.7172H37.3485V36.8559H44.9745ZM70.0966 36.8559L69.2677 40.7172H62.9543L62.1252 36.8559H70.0966ZM59.0277 36.8559V40.7172H51.9443V36.8559H59.0277ZM80.2777 36.8559V40.7172H73.1943V36.8559H80.2777ZM11.8054 29.4848V33.3459H4.72215V29.4848H11.8054ZM59.0277 29.4848V33.3459H51.9443V29.4848H59.0277ZM80.2777 29.4848V33.3459H73.1943V29.4848H80.2777ZM42.109 29.4848C42.8953 30.5787 43.5614 31.8845 44.0785 33.3456H23.6111V29.4846L42.109 29.4848ZM71.6791 29.4848L70.8503 33.3459H61.3717L60.5429 29.4846L71.6791 29.4848ZM65.4472 22.1138L66.1109 25.2348L66.7745 22.1138H80.2775V25.9748H73.1946V22.4273L72.4326 25.9751H59.7895L59.0277 22.4268V25.9751H51.9446V22.1138H65.4472ZM23.6109 22.1138H44.0788C43.5617 23.5751 42.8956 24.8809 42.1092 25.9748H23.6111L23.6109 22.1138ZM11.8054 22.1138V25.9748H4.72215V22.1135L11.8054 22.1138ZM11.8054 14.7424V18.6035H4.72215V14.7424H11.8054ZM30.6943 14.7424V18.6035H23.6109V14.7424H30.6943ZM45.2904 14.7424C45.29 16.0466 45.1837 17.345 44.9745 18.6035H37.3485V14.7424H45.2904ZM63.8797 14.7424L64.7008 18.6035H51.9446V14.7424H63.8797ZM80.2775 14.7424V18.6035H67.5212L68.3422 14.7424H80.2775ZM16.5275 7.37109V11.2324H0V7.37081L16.5275 7.37109ZM44.0811 7.37109C44.5086 8.57759 44.8284 9.87773 45.0311 11.2321H18.8886V7.37109H44.0811ZM84.9998 7.37109V11.2321H69.0886L69.9097 7.37109H84.9998ZM62.3121 7.37109L63.1333 11.2321H47.2221V7.37109H62.3121ZM16.528 0.000284959V3.86106H0V1.34746e-05L16.528 0.000284959ZM36.2752 1.34746e-05C38.5267 -0.00497088 40.6973 1.37303 42.3569 3.86106H18.8889V1.34746e-05H36.2752ZM85 1.34746e-05V3.86134H70.6562L71.4774 0.000284959L85 1.34746e-05ZM60.7451 1.34746e-05L61.5661 3.86134H47.2223V0.000284959L60.7451 1.34746e-05Z" fill="black"/>
</svg>
